<?xml version="1.0" encoding="UTF-8" standalone="no"?>
<svg
   viewBox="0 0 503.25 503.69"
   version="1.1"
   id="svg139509"
   sodipodi:docname="venn-3.svg"
   inkscape:version="1.1.2 (0a00cf5339, 2022-02-04)"
   xmlns:inkscape="http://www.inkscape.org/namespaces/inkscape"
   xmlns:sodipodi="http://sodipodi.sourceforge.net/DTD/sodipodi-0.dtd"
   xmlns="http://www.w3.org/2000/svg"
   xmlns:svg="http://www.w3.org/2000/svg">
  <sodipodi:namedview
     id="namedview139511"
     pagecolor="#ffffff"
     bordercolor="#666666"
     borderopacity="1.0"
     inkscape:pageshadow="2"
     inkscape:pageopacity="0.0"
     inkscape:pagecheckerboard="0"
     showgrid="false"
     inkscape:zoom="1.0542199"
     inkscape:cx="27.982778"
     inkscape:cy="176.90807"
     inkscape:window-width="1920"
     inkscape:window-height="1049"
     inkscape:window-x="0"
     inkscape:window-y="0"
     inkscape:window-maximized="1"
     inkscape:current-layer="svg139509" />
  <defs
     id="defs139459">
    <style
       type="text/css"
       id="style139457"><![CDATA[
    line, polyline, polygon, path, rect, circle {
      fill: none;
      stroke: #000000;
      stroke-linecap: round;
      stroke-linejoin: round;
      stroke-miterlimit: 10.00;
    }
  ]]></style>
  </defs>
  <rect
     width="100%"
     height="100%"
     style="stroke: none; fill: #FFFFFF;"
     id="rect139461" />
  <polygon
     points="63.81,155.42 62.44,162.55 61.52,169.76 61.06,177.01 61.06,184.27 61.52,191.52 62.44,198.73 63.81,205.86 65.63,212.89 67.9,219.79 70.6,226.54 73.71,233.1 77.24,239.44 81.17,245.55 85.47,251.4 90.14,256.97 95.14,262.23 100.48,267.16 106.11,271.74 112.02,275.95 118.19,279.78 124.58,283.21 131.19,286.23 137.97,288.82 144.9,290.98 151.95,292.69 159.1,293.95 166.31,294.76 173.56,295.1 180.82,294.99 188.05,294.41 195.24,293.38 202.34,291.89 209.34,289.95 216.19,287.58 222.89,284.77 229.39,281.55 235.68,277.91 241.72,273.89 247.49,269.49 252.98,264.73 258.15,259.64 262.99,254.22 267.48,248.51 271.59,242.53 275.32,236.3 278.65,229.84 281.56,223.19 284.04,216.36 286.08,209.39 287.68,202.31 288.83,195.13 289.52,187.9 289.75,180.64 289.52,173.38 288.83,166.15 287.68,158.98 286.08,151.89 284.04,144.92 281.56,138.09 278.65,131.44 275.32,124.98 271.59,118.75 267.48,112.77 262.99,107.06 258.15,101.64 252.98,96.55 247.49,91.79 241.72,87.39 235.68,83.37 229.39,79.74 222.89,76.51 216.19,73.7 209.34,71.33 202.34,69.39 195.24,67.9 188.05,66.87 180.82,66.3 173.56,66.18 166.31,66.53 159.1,67.33 151.95,68.59 144.9,70.3 137.97,72.46 131.19,75.05 124.58,78.07 118.19,81.5 112.02,85.33 106.11,89.55 100.48,94.13 95.14,99.05 90.14,104.31 85.47,109.88 81.17,115.73 77.24,121.84 73.71,128.19 70.6,134.74 67.9,141.49 65.63,148.39 "
     style="fill:#0000ff;fill-opacity:0.471281;stroke:none;stroke-width:1.07"
     id="polygon139463"
     transform="translate(12,72)"
     inkscape:export-filename="/media/fmota1/200GbExt4/dados/nitrogenase/transcriptoma/Genome-StC/pyGenomeViz/FigurasFinais/3vennDiagram400DPI.png"
     inkscape:export-xdpi="400.04477"
     inkscape:export-ydpi="400.04477" />
  <polygon
     points="214.94,162.55 214.02,169.76 213.56,177.01 213.56,184.27 214.02,191.52 214.94,198.73 216.31,205.86 218.13,212.89 220.4,219.79 223.1,226.54 226.21,233.1 229.74,239.44 233.67,245.55 237.97,251.4 242.64,256.97 247.64,262.23 252.98,267.16 258.61,271.74 264.52,275.95 270.69,279.78 277.08,283.21 283.69,286.23 290.47,288.82 297.4,290.98 304.45,292.69 311.6,293.95 318.81,294.76 326.06,295.1 333.32,294.99 340.55,294.41 347.74,293.38 354.84,291.89 361.84,289.95 368.69,287.58 375.39,284.77 381.89,281.55 388.18,277.91 394.22,273.89 399.99,269.49 405.48,264.73 410.65,259.64 415.49,254.22 419.98,248.51 424.09,242.53 427.82,236.3 431.15,229.84 434.06,223.19 436.54,216.36 438.58,209.39 440.18,202.31 441.33,195.13 442.02,187.9 442.25,180.64 442.02,173.38 441.33,166.15 440.18,158.98 438.58,151.89 436.54,144.92 434.06,138.09 431.15,131.44 427.82,124.98 424.09,118.75 419.98,112.77 415.49,107.06 410.65,101.64 405.48,96.55 399.99,91.79 394.22,87.39 388.18,83.37 381.89,79.74 375.39,76.51 368.69,73.7 361.84,71.33 354.84,69.39 347.74,67.9 340.55,66.87 333.32,66.3 326.06,66.18 318.81,66.53 311.6,67.33 304.45,68.59 297.4,70.3 290.47,72.46 283.69,75.05 277.08,78.07 270.69,81.5 264.52,85.33 258.61,89.55 252.98,94.13 247.64,99.05 242.64,104.31 237.97,109.88 233.67,115.73 229.74,121.84 226.21,128.19 223.1,134.74 220.4,141.49 218.13,148.39 216.31,155.42 "
     style="fill:#ffff00;fill-opacity:0.442005;stroke:none;stroke-width:1.07"
     id="polygon139465"
     transform="translate(-14,72)"
     inkscape:export-filename="/media/fmota1/200GbExt4/dados/nitrogenase/transcriptoma/Genome-StC/pyGenomeViz/FigurasFinais/3vennDiagram400DPI.png"
     inkscape:export-xdpi="400.04477"
     inkscape:export-ydpi="400.04477" />
  <polygon
     points="214.22,431.23 221.15,433.39 228.2,435.1 235.35,436.36 242.56,437.16 249.81,437.51 257.07,437.4 264.3,436.82 271.49,435.79 278.59,434.3 285.59,432.36 292.44,429.99 299.14,427.18 305.64,423.95 311.93,420.32 317.97,416.3 323.74,411.9 329.23,407.14 334.4,402.05 339.24,396.63 343.73,390.92 347.84,384.94 351.57,378.71 354.9,372.25 357.81,365.6 360.29,358.77 362.33,351.8 363.93,344.71 365.08,337.54 365.77,330.31 366,323.05 365.77,315.79 365.08,308.56 363.93,301.39 362.33,294.3 360.29,287.33 357.81,280.5 354.9,273.85 351.57,267.39 347.84,261.16 343.73,255.18 339.24,249.47 334.4,244.05 329.23,238.96 323.74,234.2 317.97,229.8 311.93,225.78 305.64,222.15 299.14,218.92 292.44,216.11 285.59,213.74 278.59,211.8 271.49,210.31 264.3,209.28 257.07,208.7 249.81,208.59 242.56,208.93 235.35,209.74 228.2,211 221.15,212.71 214.22,214.87 207.44,217.46 200.83,220.48 194.44,223.91 188.27,227.74 182.36,231.95 176.73,236.54 171.39,241.46 166.39,246.72 161.72,252.29 157.42,258.14 153.49,264.25 149.96,270.59 146.85,277.15 144.15,283.9 141.88,290.8 140.06,297.83 138.69,304.96 137.77,312.17 137.31,319.42 137.31,326.68 137.77,333.93 138.69,341.14 140.06,348.27 141.88,355.3 144.15,362.2 146.85,368.95 149.96,375.51 153.49,381.85 157.42,387.96 161.72,393.81 166.39,399.38 171.39,404.64 176.73,409.56 182.36,414.14 188.27,418.36 194.44,422.19 200.83,425.62 207.44,428.64 "
     style="fill:#008000;fill-opacity:0.334749;stroke:none;stroke-width:1.07"
     id="polygon139467"
     transform="translate(0,26)"
     inkscape:export-filename="/media/fmota1/200GbExt4/dados/nitrogenase/transcriptoma/Genome-StC/pyGenomeViz/FigurasFinais/3vennDiagram400DPI.png"
     inkscape:export-xdpi="400.04477"
     inkscape:export-ydpi="400.04477" />
  <polyline
     points="289.75,180.64 289.52,173.38 288.83,166.15 287.68,158.98 286.08,151.89 284.04,144.92 281.56,138.09 278.65,131.44 275.32,124.98 271.59,118.75 267.48,112.77 262.99,107.06 258.15,101.64 252.98,96.55 247.49,91.79 241.72,87.39 235.68,83.37 229.39,79.74 222.89,76.51 216.19,73.70 209.34,71.33 202.34,69.39 195.24,67.90 188.05,66.87 180.82,66.30 173.56,66.18 166.31,66.53 159.10,67.33 151.95,68.59 144.90,70.30 137.97,72.46 131.19,75.05 124.58,78.07 118.19,81.50 112.02,85.33 106.11,89.55 100.48,94.13 95.14,99.05 90.14,104.31 85.47,109.88 81.17,115.73 77.24,121.84 73.71,128.19 70.60,134.74 67.90,141.49 65.63,148.39 63.81,155.42 62.44,162.55 61.52,169.76 61.06,177.01 61.06,184.27 61.52,191.52 62.44,198.73 63.81,205.86 65.63,212.89 67.90,219.79 70.60,226.54 73.71,233.10 77.24,239.44 81.17,245.55 85.47,251.40 90.14,256.97 95.14,262.23 100.48,267.16 106.11,271.74 112.02,275.95 118.19,279.78 124.58,283.21 131.19,286.23 137.97,288.82 144.90,290.98 151.95,292.69 159.10,293.95 166.31,294.76 173.56,295.10 180.82,294.99 188.05,294.41 195.24,293.38 202.34,291.89 209.34,289.95 216.19,287.58 222.89,284.77 229.39,281.55 235.68,277.91 241.72,273.89 247.49,269.49 252.98,264.73 258.15,259.64 262.99,254.22 267.48,248.51 271.59,242.53 275.32,236.30 278.65,229.84 281.56,223.19 284.04,216.36 286.08,209.39 287.68,202.31 288.83,195.13 289.52,187.90 289.75,180.64 289.75,180.64 "
     style="stroke-width:2.13"
     id="polyline139469"
     transform="translate(12,72)"
     inkscape:export-filename="/media/fmota1/200GbExt4/dados/nitrogenase/transcriptoma/Genome-StC/pyGenomeViz/FigurasFinais/3vennDiagram400DPI.png"
     inkscape:export-xdpi="400.04477"
     inkscape:export-ydpi="400.04477" />
  <polyline
     points="442.25,180.64 442.02,173.38 441.33,166.15 440.18,158.98 438.58,151.89 436.54,144.92 434.06,138.09 431.15,131.44 427.82,124.98 424.09,118.75 419.98,112.77 415.49,107.06 410.65,101.64 405.48,96.55 399.99,91.79 394.22,87.39 388.18,83.37 381.89,79.74 375.39,76.51 368.69,73.70 361.84,71.33 354.84,69.39 347.74,67.90 340.55,66.87 333.32,66.30 326.06,66.18 318.81,66.53 311.60,67.33 304.45,68.59 297.40,70.30 290.47,72.46 283.69,75.05 277.08,78.07 270.69,81.50 264.52,85.33 258.61,89.55 252.98,94.13 247.64,99.05 242.64,104.31 237.97,109.88 233.67,115.73 229.74,121.84 226.21,128.19 223.10,134.74 220.40,141.49 218.13,148.39 216.31,155.42 214.94,162.55 214.02,169.76 213.56,177.01 213.56,184.27 214.02,191.52 214.94,198.73 216.31,205.86 218.13,212.89 220.40,219.79 223.10,226.54 226.21,233.10 229.74,239.44 233.67,245.55 237.97,251.40 242.64,256.97 247.64,262.23 252.98,267.16 258.61,271.74 264.52,275.95 270.69,279.78 277.08,283.21 283.69,286.23 290.47,288.82 297.40,290.98 304.45,292.69 311.60,293.95 318.81,294.76 326.06,295.10 333.32,294.99 340.55,294.41 347.74,293.38 354.84,291.89 361.84,289.95 368.69,287.58 375.39,284.77 381.89,281.55 388.18,277.91 394.22,273.89 399.99,269.49 405.48,264.73 410.65,259.64 415.49,254.22 419.98,248.51 424.09,242.53 427.82,236.30 431.15,229.84 434.06,223.19 436.54,216.36 438.58,209.39 440.18,202.31 441.33,195.13 442.02,187.90 442.25,180.64 442.25,180.64 "
     style="stroke-width:2.13"
     id="polyline139471"
     transform="translate(-14,72)"
     inkscape:export-filename="/media/fmota1/200GbExt4/dados/nitrogenase/transcriptoma/Genome-StC/pyGenomeViz/FigurasFinais/3vennDiagram400DPI.png"
     inkscape:export-xdpi="400.04477"
     inkscape:export-ydpi="400.04477" />
  <polyline
     points="366.00,323.05 365.77,315.79 365.08,308.56 363.93,301.39 362.33,294.30 360.29,287.33 357.81,280.50 354.90,273.85 351.57,267.39 347.84,261.16 343.73,255.18 339.24,249.47 334.40,244.05 329.23,238.96 323.74,234.20 317.97,229.80 311.93,225.78 305.64,222.15 299.14,218.92 292.44,216.11 285.59,213.74 278.59,211.80 271.49,210.31 264.30,209.28 257.07,208.70 249.81,208.59 242.56,208.93 235.35,209.74 228.20,211.00 221.15,212.71 214.22,214.87 207.44,217.46 200.83,220.48 194.44,223.91 188.27,227.74 182.36,231.95 176.73,236.54 171.39,241.46 166.39,246.72 161.72,252.29 157.42,258.14 153.49,264.25 149.96,270.59 146.85,277.15 144.15,283.90 141.88,290.80 140.06,297.83 138.69,304.96 137.77,312.17 137.31,319.42 137.31,326.68 137.77,333.93 138.69,341.14 140.06,348.27 141.88,355.30 144.15,362.20 146.85,368.95 149.96,375.51 153.49,381.85 157.42,387.96 161.72,393.81 166.39,399.38 171.39,404.64 176.73,409.56 182.36,414.14 188.27,418.36 194.44,422.19 200.83,425.62 207.44,428.64 214.22,431.23 221.15,433.39 228.20,435.10 235.35,436.36 242.56,437.16 249.81,437.51 257.07,437.40 264.30,436.82 271.49,435.79 278.59,434.30 285.59,432.36 292.44,429.99 299.14,427.18 305.64,423.95 311.93,420.32 317.97,416.30 323.74,411.90 329.23,407.14 334.40,402.05 339.24,396.63 343.73,390.92 347.84,384.94 351.57,378.71 354.90,372.25 357.81,365.60 360.29,358.77 362.33,351.80 363.93,344.71 365.08,337.54 365.77,330.31 366.00,323.05 366.00,323.05 "
     style="stroke-width:2.13"
     id="polyline139473"
     transform="translate(0,26)"
     inkscape:export-filename="/media/fmota1/200GbExt4/dados/nitrogenase/transcriptoma/Genome-StC/pyGenomeViz/FigurasFinais/3vennDiagram400DPI.png"
     inkscape:export-xdpi="400.04477"
     inkscape:export-ydpi="400.04477" />
  <text
     xml:space="preserve"
     style="font-style:normal;font-weight:normal;font-size:40px;line-height:125%;font-family:sans-serif;letter-spacing:0px;word-spacing:0px;fill:#000000;fill-opacity:1;stroke:none;stroke-width:1px;stroke-linecap:butt;stroke-linejoin:miter;stroke-opacity:1"
     x="249.31633"
     y="318.10333"
     id="text160379"><tspan
       sodipodi:role="line"
       id="tspan160377"></tspan></text>
  <text
     xml:space="preserve"
     style="font-size:26.6667px;line-height:125%;font-family:sans-serif;text-align:center;letter-spacing:0px;word-spacing:0px;text-anchor:middle;fill:none;stroke:#000000;stroke-width:1px;stroke-linecap:butt;stroke-linejoin:miter;stroke-opacity:1"
     x="254.42981"
     y="397.5033"
     id="text184927"
     inkscape:export-filename="/media/fmota1/200GbExt4/dados/nitrogenase/transcriptoma/Genome-StC/pyGenomeViz/FigurasFinais/3vennDiagram400DPI.png"
     inkscape:export-xdpi="400.04477"
     inkscape:export-ydpi="400.04477"><tspan
       sodipodi:role="line"
       id="tspan184925"
       x="254.42981"
       y="397.5033"
       style="fill:#000000">208</tspan><tspan
       sodipodi:role="line"
       x="254.42981"
       y="430.83667"
       id="tspan184929">(214)</tspan></text>
  <text
     xml:space="preserve"
     style="font-size:26.6667px;line-height:125%;font-family:sans-serif;text-align:center;letter-spacing:0px;word-spacing:0px;text-anchor:middle;fill:none;stroke:#000000;stroke-width:1px;stroke-linecap:butt;stroke-linejoin:miter;stroke-opacity:1"
     x="242.85641"
     y="54.110382"
     id="text184927-37"
     inkscape:export-filename="/media/fmota1/200GbExt4/dados/nitrogenase/transcriptoma/Genome-StC/pyGenomeViz/FigurasFinais/3vennDiagram400DPI.png"
     inkscape:export-xdpi="400.04477"
     inkscape:export-ydpi="400.04477"><tspan
       sodipodi:role="line"
       id="tspan184925-5"
       x="242.85641"
       y="54.110382"
       style="fill:#000000">Orthogroups</tspan><tspan
       sodipodi:role="line"
       x="242.85641"
       y="87.443756"
       id="tspan184929-9">(proteins)</tspan></text>
  <text
     xml:space="preserve"
     style="font-size:21.3333px;line-height:125%;font-family:sans-serif;text-align:center;letter-spacing:0px;word-spacing:0px;text-anchor:middle;fill:none;stroke:#000000;stroke-width:1px;stroke-linecap:butt;stroke-linejoin:miter;stroke-opacity:1"
     x="250.3421"
     y="266.21326"
     id="text184927-3"
     inkscape:export-filename="/media/fmota1/200GbExt4/dados/nitrogenase/transcriptoma/Genome-StC/pyGenomeViz/FigurasFinais/3vennDiagram400DPI.png"
     inkscape:export-xdpi="400.04477"
     inkscape:export-ydpi="400.04477"><tspan
       sodipodi:role="line"
       id="tspan184925-6"
       x="250.3421"
       y="266.21326"
       style="font-size:21.3333px;fill:#000000">3295</tspan><tspan
       sodipodi:role="line"
       x="250.3421"
       y="292.87988"
       id="tspan184929-7"
       style="font-size:21.3333px">(10472)</tspan></text>
  <text
     xml:space="preserve"
     style="font-size:21.3333px;line-height:125%;font-family:sans-serif;text-align:center;letter-spacing:0px;word-spacing:0px;text-anchor:middle;fill:none;stroke:#000000;stroke-width:1px;stroke-linecap:butt;stroke-linejoin:miter;stroke-opacity:1"
     x="252.62787"
     y="198.93646"
     id="text184927-3-5"
     inkscape:export-filename="/media/fmota1/200GbExt4/dados/nitrogenase/transcriptoma/Genome-StC/pyGenomeViz/FigurasFinais/3vennDiagram400DPI.png"
     inkscape:export-xdpi="400.04477"
     inkscape:export-ydpi="400.04477"><tspan
       sodipodi:role="line"
       id="tspan184925-6-3"
       x="252.62787"
       y="198.93646"
       style="font-size:21.3333px;fill:#000000">519</tspan><tspan
       sodipodi:role="line"
       x="252.62787"
       y="225.60309"
       id="tspan184929-7-5"
       style="font-size:21.3333px">(1217)</tspan></text>
  <text
     xml:space="preserve"
     style="font-size:21.3333px;line-height:125%;font-family:sans-serif;text-align:center;letter-spacing:0px;word-spacing:0px;text-anchor:middle;fill:none;stroke:#000000;stroke-width:1px;stroke-linecap:butt;stroke-linejoin:miter;stroke-opacity:1"
     x="350.48499"
     y="213.23946"
     id="text184927-3-5-6"
     inkscape:export-filename="/media/fmota1/200GbExt4/dados/nitrogenase/transcriptoma/Genome-StC/pyGenomeViz/FigurasFinais/3vennDiagram400DPI.png"
     inkscape:export-xdpi="400.04477"
     inkscape:export-ydpi="400.04477"><tspan
       sodipodi:role="line"
       id="tspan184925-6-3-2"
       x="350.48499"
       y="213.23946"
       style="font-size:21.3333px;fill:#000000">113</tspan><tspan
       sodipodi:role="line"
       x="350.48499"
       y="239.90608"
       id="tspan184929-7-5-9"
       style="font-size:21.3333px">(113)</tspan></text>
  <text
     xml:space="preserve"
     style="font-size:21.3333px;line-height:125%;font-family:sans-serif;text-align:center;letter-spacing:0px;word-spacing:0px;text-anchor:middle;fill:none;stroke:#000000;stroke-width:1px;stroke-linecap:butt;stroke-linejoin:miter;stroke-opacity:1"
     x="153.48474"
     y="212.55945"
     id="text184927-3-5-6-0"
     inkscape:export-filename="/media/fmota1/200GbExt4/dados/nitrogenase/transcriptoma/Genome-StC/pyGenomeViz/FigurasFinais/3vennDiagram400DPI.png"
     inkscape:export-xdpi="400.04477"
     inkscape:export-ydpi="400.04477"><tspan
       sodipodi:role="line"
       id="tspan184925-6-3-2-9"
       x="153.48474"
       y="212.55945"
       style="font-size:21.3333px;fill:#000000">117</tspan><tspan
       sodipodi:role="line"
       x="153.48474"
       y="239.22607"
       id="tspan184929-7-5-9-3"
       style="font-size:21.3333px">(122)</tspan></text>
  <text
     xml:space="preserve"
     style="font-size:21.3333px;line-height:125%;font-family:sans-serif;text-align:center;letter-spacing:0px;word-spacing:0px;text-anchor:middle;fill:none;stroke:#000000;stroke-width:1px;stroke-linecap:butt;stroke-linejoin:miter;stroke-opacity:1"
     x="146.56741"
     y="96.660629"
     id="text184927-3-5-6-0-2"
     inkscape:export-filename="/media/fmota1/200GbExt4/dados/nitrogenase/transcriptoma/Genome-StC/pyGenomeViz/FigurasFinais/3vennDiagram400DPI.png"
     inkscape:export-xdpi="400.04477"
     inkscape:export-ydpi="400.04477"><tspan
       sodipodi:role="line"
       id="tspan184925-6-3-2-9-6"
       x="146.56741"
       y="96.660629"
       style="font-size:21.3333px;fill:#000000" /><tspan
       sodipodi:role="line"
       x="146.56741"
       y="123.32726"
       id="tspan184929-7-5-9-3-1"
       style="font-size:21.3333px;fill:#0000ff;fill-opacity:0.517765">UBT1 scaffold</tspan></text>
  <text
     xml:space="preserve"
     style="font-size:21.3333px;line-height:125%;font-family:sans-serif;text-align:center;letter-spacing:0px;word-spacing:0px;text-anchor:middle;fill:#ffff00;fill-opacity:0.928818;stroke:#000000;stroke-width:1px;stroke-linecap:butt;stroke-linejoin:miter;stroke-opacity:1"
     x="353.90979"
     y="96.496078"
     id="text184927-3-5-6-0-2-8"
     inkscape:export-filename="/media/fmota1/200GbExt4/dados/nitrogenase/transcriptoma/Genome-StC/pyGenomeViz/FigurasFinais/3vennDiagram400DPI.png"
     inkscape:export-xdpi="400.04477"
     inkscape:export-ydpi="400.04477"><tspan
       sodipodi:role="line"
       id="tspan184925-6-3-2-9-6-7"
       x="353.90979"
       y="96.496078"
       style="font-size:21.3333px;fill:#ffff00;fill-opacity:0.928818" /><tspan
       sodipodi:role="line"
       x="353.90979"
       y="123.1627"
       id="tspan184929-7-5-9-3-1-9"
       style="font-size:21.3333px;fill:#ffff00;fill-opacity:0.928818">H1 scaffold</tspan></text>
  <text
     xml:space="preserve"
     style="font-size:21.3333px;line-height:125%;font-family:sans-serif;text-align:center;letter-spacing:0px;word-spacing:0px;text-anchor:middle;fill:#008000;fill-opacity:0.377805;stroke:#000000;stroke-width:1px;stroke-linecap:butt;stroke-linejoin:miter;stroke-opacity:1"
     x="253.18161"
     y="459.66525"
     id="text184927-3-5-6-0-2-8-2"
     inkscape:export-filename="/media/fmota1/200GbExt4/dados/nitrogenase/transcriptoma/Genome-StC/pyGenomeViz/FigurasFinais/3vennDiagram400DPI.png"
     inkscape:export-xdpi="400.04477"
     inkscape:export-ydpi="400.04477"><tspan
       sodipodi:role="line"
       id="tspan184925-6-3-2-9-6-7-0"
       x="253.18161"
       y="459.66525"
       style="font-size:21.3333px;fill:#008000;fill-opacity:0.377805" /><tspan
       sodipodi:role="line"
       x="253.18161"
       y="486.33188"
       id="tspan184929-7-5-9-3-1-9-2"
       style="font-size:21.3333px;fill:#008000;fill-opacity:0.377805">STC genome</tspan></text>
  <text
     xml:space="preserve"
     style="font-size:21.3333px;line-height:125%;font-family:sans-serif;text-align:center;letter-spacing:0px;word-spacing:0px;text-anchor:middle;fill:none;stroke:#000000;stroke-width:1px;stroke-linecap:butt;stroke-linejoin:miter;stroke-opacity:1"
     x="319.57645"
     y="321.79379"
     id="text184927-3-5-6-1"
     inkscape:export-filename="/media/fmota1/200GbExt4/dados/nitrogenase/transcriptoma/Genome-StC/pyGenomeViz/FigurasFinais/3vennDiagram400DPI.png"
     inkscape:export-xdpi="400.04477"
     inkscape:export-ydpi="400.04477"><tspan
       sodipodi:role="line"
       id="tspan184925-6-3-2-2"
       x="319.57645"
       y="321.79379"
       style="font-size:21.3333px;fill:#000000">30</tspan><tspan
       sodipodi:role="line"
       x="319.57645"
       y="348.46042"
       id="tspan184929-7-5-9-7"
       style="font-size:21.3333px">(64)</tspan></text>
  <text
     xml:space="preserve"
     style="font-size:21.3333px;line-height:125%;font-family:sans-serif;text-align:center;letter-spacing:0px;word-spacing:0px;text-anchor:middle;fill:none;stroke:#000000;stroke-width:1px;stroke-linecap:butt;stroke-linejoin:miter;stroke-opacity:1"
     x="183.33627"
     y="321.47916"
     id="text184927-3-5-6-1-6"
     inkscape:export-filename="/media/fmota1/200GbExt4/dados/nitrogenase/transcriptoma/Genome-StC/pyGenomeViz/FigurasFinais/3vennDiagram400DPI.png"
     inkscape:export-xdpi="400.04477"
     inkscape:export-ydpi="400.04477"><tspan
       sodipodi:role="line"
       id="tspan184925-6-3-2-2-0"
       x="183.33627"
       y="321.47916"
       style="font-size:21.3333px;fill:#000000">358</tspan><tspan
       sodipodi:role="line"
       x="183.33627"
       y="348.14578"
       id="tspan184929-7-5-9-7-6"
       style="font-size:21.3333px">(773)</tspan></text>
</svg>
